<?xml version="1.0" encoding="utf-8"?>
<!-- Generator: Adobe Illustrator 16.0.0, SVG Export Plug-In . SVG Version: 6.00 Build 0)  -->
<!DOCTYPE svg PUBLIC "-//W3C//DTD SVG 1.1//EN" "http://www.w3.org/Graphics/SVG/1.1/DTD/svg11.dtd">
<svg version="1.1" id="Layer_1" xmlns="http://www.w3.org/2000/svg" xmlns:xlink="http://www.w3.org/1999/xlink" x="0px" y="0px"
	 width="612px" height="792px" viewBox="0 0 612 792" enable-background="new 0 0 612 792" xml:space="preserve">
<g>
	<g>
		<g>
			<path fill="#FFFFFF" d="M418.24,164.349c-12.91-5.618-27.971,0.239-33.589,13.148c-5.618,12.909,0.239,27.97,13.148,33.588
				c82.955,36.218,137.7,118.336,137.7,210.375c0,126.703-102.797,229.5-229.5,229.5S76.5,548.163,76.5,421.46
				c0-92.039,54.745-174.157,137.7-210.375c12.909-5.618,18.766-20.679,13.148-33.588c-5.618-12.91-20.679-18.767-33.588-13.148
				C92.397,208.694,25.46,308.981,25.46,421.46C25.46,576.373,151.087,702,306,702c154.912,0,280.54-125.627,280.54-280.54
				C586.54,308.981,519.603,208.575,418.24,164.349z"/>
			<path fill="#FFFFFF" d="M306,370.54c14.104,0,25.46-11.475,25.46-25.46v-229.5C331.46,101.475,320.104,90,306,90
				s-25.46,11.475-25.46,25.46v229.5C280.54,359.065,291.896,370.54,306,370.54z"/>
		</g>
	</g>
</g>
</svg>
