<?xml version="1.0" encoding="utf-8"?>
<!-- Generator: Adobe Illustrator 16.0.0, SVG Export Plug-In . SVG Version: 6.00 Build 0)  -->
<!DOCTYPE svg PUBLIC "-//W3C//DTD SVG 1.1//EN" "http://www.w3.org/Graphics/SVG/1.1/DTD/svg11.dtd">
<svg version="1.1" id="Capa_1" xmlns="http://www.w3.org/2000/svg" xmlns:xlink="http://www.w3.org/1999/xlink" x="0px" y="0px"
	 width="545.364px" height="600px" viewBox="0 0 545.364 600" enable-background="new 0 0 545.364 600" xml:space="preserve">
<g transform="translate(1 1)">
	<g>
		<g>
			<path fill="#7259DB" d="M517.094,326.268c-15.059,0-27.268,12.209-27.268,27.27c0,45.229-36.574,81.804-81.807,81.804H189.877
				v-81.804c0-22.864-26.447-35.575-44.302-21.293L9.234,441.315c-13.645,10.917-13.645,31.67,0,42.586l136.341,109.072
				c17.854,14.283,44.302,1.57,44.302-21.293v-81.805h218.147c75.35,0,136.34-60.991,136.34-136.341
				C544.364,338.477,532.155,326.268,517.094,326.268z M135.341,514.946l-65.422-52.338l65.422-52.338V514.946z"/>
			<path fill="#7259DB" d="M26.268,271.732c15.06,0,27.268-12.209,27.268-27.269c0-45.23,36.574-81.804,81.804-81.804h218.145
				v81.804c0,22.864,26.449,35.576,44.303,21.293l136.342-109.073c13.645-10.917,13.645-31.669,0-42.585L397.788,5.026
				c-17.854-14.283-44.303-1.571-44.303,21.293v81.804H135.341C59.992,108.123-1,169.113-1,244.464
				C-1,259.523,11.209,271.732,26.268,271.732z M408.022,83.054l65.422,52.337l-65.422,52.338V83.054z"/>
		</g>
	</g>
</g>
</svg>
