<?xml version="1.0" encoding="utf-8"?>
<!-- Generator: Adobe Illustrator 16.0.0, SVG Export Plug-In . SVG Version: 6.00 Build 0)  -->
<!DOCTYPE svg PUBLIC "-//W3C//DTD SVG 1.1//EN" "http://www.w3.org/Graphics/SVG/1.1/DTD/svg11.dtd">
<svg version="1.1" id="Layer_1" xmlns="http://www.w3.org/2000/svg" xmlns:xlink="http://www.w3.org/1999/xlink" x="0px" y="0px"
	 width="390.601px" height="512px" viewBox="0 0 390.601 512" enable-background="new 0 0 390.601 512" xml:space="preserve">
<g>
	<path fill="#7259DB" d="M310.532,181.492l53.953-53.954L236.946,0L66.98,169.967l11.526,11.526H0v330.508h390.6V181.493
		L310.532,181.492L310.532,181.492z M236.946,42.492l85.049,85.047L207.948,241.584H181.09l-71.619-71.618L236.946,42.492z
		 M360.555,481.954H30.047V331.723h330.508V481.954z M30.047,301.677v-90.139h78.505l30.046,30.046H90.139v30.046h210.323v-30.046
		h-50.023l30.047-30.046h80.07v90.139H30.047z"/>
	<path fill="#7259DB" d="M268.905,138.007l-21.426-21.064L195,170.323l-21.695-20.97l-20.883,21.603l43.115,41.676L268.905,138.007z
		"/>
</g>
</svg>
