<?xml version="1.0" encoding="utf-8"?>
<!-- Generator: Adobe Illustrator 16.0.0, SVG Export Plug-In . SVG Version: 6.00 Build 0)  -->
<!DOCTYPE svg PUBLIC "-//W3C//DTD SVG 1.1//EN" "http://www.w3.org/Graphics/SVG/1.1/DTD/svg11.dtd">
<svg version="1.1" id="Capa_1" xmlns="http://www.w3.org/2000/svg" xmlns:xlink="http://www.w3.org/1999/xlink" x="0px" y="0px"
	 width="600px" height="600px" viewBox="0 0 600 600" enable-background="new 0 0 600 600" xml:space="preserve">
<g transform="translate(1 1)">
	<g>
		<path fill="#7259DB" d="M590.816,255.501L318.42,7.868l-2.604-2.366c-1.787-1.625-3.752-2.946-5.828-3.962
			c-0.092-0.044-0.188-0.078-0.281-0.122c-6.764-3.208-14.651-3.208-21.417,0c-0.092,0.043-0.188,0.076-0.281,0.122
			c-2.075,1.016-4.039,2.336-5.828,3.962l-2.564,2.332L7.184,255.501c-10.216,9.287-10.97,25.1-1.682,35.316
			c9.287,10.216,25.099,10.97,35.316,1.682L49,285.06V574c0,13.808,11.192,25,25,25h125h200h125c13.807,0,25-11.192,25-25V285.06
			l8.184,7.439c10.217,9.289,26.027,8.535,35.314-1.682C601.787,280.601,601.033,264.79,590.816,255.501z M249,549.001v-150
			C249,371.383,271.381,349,299,349c27.619,0,50,22.382,50,50.001v150H249z M499,549.001h-99.998v-150
			C399.002,343.768,354.232,299,299,299c-55.233,0-100,44.768-100,100v150H99V239.609L299,57.787l200,181.822V549.001z"/>
	</g>
</g>
</svg>
