<svg id="_8679933_question_line_icon" data-name="8679933_question_line_icon" xmlns="http://www.w3.org/2000/svg" width="29" height="29" viewBox="0 0 29 29">
  <path id="Path_56" data-name="Path 56" d="M16.5,31A14.5,14.5,0,1,1,31,16.5,14.5,14.5,0,0,1,16.5,31Zm0-2.9A11.6,11.6,0,1,0,4.9,16.5,11.6,11.6,0,0,0,16.5,28.1Zm-1.45-7.25h2.9v2.9h-2.9Zm2.9-2.385V19.4h-2.9V17.225a1.45,1.45,0,0,1,1.45-1.45,2.175,2.175,0,1,0-2.133-2.6l-2.845-.57a5.076,5.076,0,1,1,6.428,5.861Z" transform="translate(-2 -2)" fill="#6967b0"/>
</svg>
